# xmcd CD database file
#
# Track frame offsets:
#	150
#	17888
#	33855
#	56356
#	77811
#	91039
#	110342
#	131595
#	154254
#	166071
#	181035
#	197286
#	211454
#	229057
#	244869
#	258508
#
# Disc length: 3671 seconds
#
# Revision: 0
# Processed by: cddbd v1.5.2PL0 Copyright (c) Steve Scherf et al.
# Submitted via: CDex 1.51
#
DISCID=c10e5510
DTITLE=Bandari - Autumn Scenery
DYEAR=2002
DGENRE=New Age
TTITLE0=I'm Easy
TTITLE1=Just When I Needed You Most
TTITLE2=All By Myself
TTITLE3=The Greatest Love Of All
TTITLE4=Put Your Head On My Shoulder
TTITLE5=Sometimes When We Touch
TTITLE6=How Can I Tell Her
TTITLE7=I Just Call To Say I Love You
TTITLE8=Sunrise And Wine
TTITLE9=Carry On Till Tomorrow
TTITLE10=Tammy
TTITLE11=I Like Chopin
TTITLE12=Whatever Will Be Will Be
TTITLE13=Theme From Moulin Rouge
TTITLE14=Try To Remember
TTITLE15=Mr Lonely
EXTD=YEAR: 2002
EXTT0=
EXTT1=
EXTT2=
EXTT3=
EXTT4=
EXTT5=
EXTT6=
EXTT7=
EXTT8=
EXTT9=
EXTT10=
EXTT11=
EXTT12=
EXTT13=
EXTT14=
EXTT15=
PLAYORDER=
